<svg width="960" height="600" viewBox="0 0 960 600" fill="none" xmlns="http://www.w3.org/2000/svg">
  <rect width="960" height="600" rx="48" fill="url(#paint0_linear_101)"/>
  <g filter="url(#filter0_f_101)">
    <circle cx="772" cy="148" r="168" fill="url(#paint1_radial_101)" fill-opacity="0.85"/>
  </g>
  <g filter="url(#filter1_f_101)">
    <circle cx="248" cy="440" r="200" fill="url(#paint2_radial_101)" fill-opacity="0.82"/>
  </g>
  <g filter="url(#filter2_f_101)">
    <path d="M160 188C160 166.118 177.118 149 199 149H761C782.882 149 800 166.118 800 188V316C800 337.882 782.882 355 761 355H199C177.118 355 160 337.882 160 316V188Z" fill="url(#paint3_linear_101)"/>
  </g>
  <rect x="192" y="212" width="576" height="264" rx="32" fill="#0B0D16" fill-opacity="0.2" stroke="rgba(255,255,255,0.2)" stroke-width="2"/>
  <rect x="216" y="232" width="160" height="112" rx="18" fill="url(#paint4_linear_101)"/>
  <rect x="216" y="360" width="160" height="96" rx="18" fill="#111A35" fill-opacity="0.55"/>
  <rect x="396" y="232" width="344" height="48" rx="12" fill="#101A2C" fill-opacity="0.65"/>
  <rect x="396" y="292" width="344" height="32" rx="12" fill="#121E34" fill-opacity="0.55"/>
  <rect x="396" y="340" width="344" height="32" rx="12" fill="#121E34" fill-opacity="0.35"/>
  <rect x="396" y="388" width="344" height="32" rx="12" fill="#121E34" fill-opacity="0.35"/>
  <rect x="396" y="436" width="244" height="32" rx="16" fill="#ECFF7C" fill-opacity="0.92"/>
  <defs>
    <filter id="filter0_f_101" x="484" y="-140" width="576" height="576" filterUnits="userSpaceOnUse" color-interpolation-filters="sRGB">
      <feFlood flood-opacity="0" result="BackgroundImageFix"/>
      <feBlend mode="normal" in="SourceGraphic" in2="BackgroundImageFix" result="shape"/>
      <feGaussianBlur stdDeviation="60" result="effect1_foregroundBlur_101"/>
    </filter>
    <filter id="filter1_f_101" x="-112" y="80" width="720" height="720" filterUnits="userSpaceOnUse" color-interpolation-filters="sRGB">
      <feFlood flood-opacity="0" result="BackgroundImageFix"/>
      <feBlend mode="normal" in="SourceGraphic" in2="BackgroundImageFix" result="shape"/>
      <feGaussianBlur stdDeviation="80" result="effect1_foregroundBlur_101"/>
    </filter>
    <filter id="filter2_f_101" x="80" y="69" width="800" height="366" filterUnits="userSpaceOnUse" color-interpolation-filters="sRGB">
      <feFlood flood-opacity="0" result="BackgroundImageFix"/>
      <feBlend mode="normal" in="SourceGraphic" in2="BackgroundImageFix" result="shape"/>
      <feGaussianBlur stdDeviation="40" result="effect1_foregroundBlur_101"/>
    </filter>
    <linearGradient id="paint0_linear_101" x1="128" y1="44" x2="832" y2="556" gradientUnits="userSpaceOnUse">
      <stop stop-color="#071A3B"/>
      <stop offset="0.45" stop-color="#1B3978"/>
      <stop offset="1" stop-color="#4E5DFF"/>
    </linearGradient>
    <radialGradient id="paint1_radial_101" cx="0" cy="0" r="1" gradientUnits="userSpaceOnUse" gradientTransform="translate(772 148) rotate(90) scale(168)">
      <stop stop-color="#FFEB8F"/>
      <stop offset="1" stop-color="#FF8C5A" stop-opacity="0"/>
    </radialGradient>
    <radialGradient id="paint2_radial_101" cx="0" cy="0" r="1" gradientUnits="userSpaceOnUse" gradientTransform="translate(248 440) rotate(90) scale(200)">
      <stop stop-color="#6EEBFF"/>
      <stop offset="1" stop-color="#4E5DFF" stop-opacity="0"/>
    </radialGradient>
    <linearGradient id="paint3_linear_101" x1="160" y1="149" x2="808" y2="355" gradientUnits="userSpaceOnUse">
      <stop stop-color="#4C66FF" stop-opacity="0.8"/>
      <stop offset="1" stop-color="#2BD5FF" stop-opacity="0.55"/>
    </linearGradient>
    <linearGradient id="paint4_linear_101" x1="216" y1="232" x2="376" y2="344" gradientUnits="userSpaceOnUse">
      <stop stop-color="#FF9F8A"/>
      <stop offset="1" stop-color="#FFD07D"/>
    </linearGradient>
  </defs>
</svg>

